<svg xmlns="http://www.w3.org/2000/svg" viewBox="0 0 128 128" role="img" aria-labelledby="title desc">
  <title id="title">Bookmark AI compact icon</title>
  <desc id="desc">A warm paper square with a simple brown bookmark ribbon and a small AI sparkle, optimized for small Chrome extension icon sizes.</desc>
  <defs>
    <linearGradient id="paper" x1="0" x2="0" y1="0" y2="1">
      <stop offset="0" stop-color="#fffdf8"/>
      <stop offset="1" stop-color="#faf6ee"/>
    </linearGradient>
    <linearGradient id="ribbon" x1="0" x2="0" y1="0" y2="1">
      <stop offset="0" stop-color="#8a6a43"/>
      <stop offset="1" stop-color="#6f5232"/>
    </linearGradient>
  </defs>
  <rect x="10" y="10" width="108" height="108" rx="25" fill="url(#paper)"/>
  <rect x="10" y="10" width="108" height="108" rx="25" fill="none" stroke="#d8ccb2" stroke-width="5"/>
  <path d="M43 27c0-4.4 3.6-8 8-8h42c4.4 0 8 3.6 8 8v78c0 3.1-3.5 4.9-6 3.1L72 91.5l-23 16.6c-2.5 1.8-6-.1-6-3.1V27Z" fill="url(#ribbon)"/>
  <path d="M54 32h36v52L76.7 74.4a8 8 0 0 0-9.4 0L54 84V32Z" fill="#fffdf8" opacity="0.16"/>
  <path d="M100 20l3.4 9.2 9.6 3.8-9.6 3.8L100 46l-3.4-9.2L87 33l9.6-3.8L100 20Z" fill="#c8a468" stroke="#7a5d3a" stroke-width="2"/>
  <circle cx="31" cy="37" r="4" fill="#c8a468"/>
  <circle cx="103" cy="87" r="3.5" fill="#456d48"/>
</svg>
